<?xml version="1.0" encoding="UTF-8"?>
<svg id="Layer_1" xmlns="http://www.w3.org/2000/svg" version="1.1" viewBox="0 0 2000 699.3">
  <!-- Generator: Adobe Illustrator 29.3.0, SVG Export Plug-In . SVG Version: 2.1.0 Build 146)  -->
  <path d="M1712.2,319.4c-14.7,0-25.4-10.8-25.4-25.5s10.8-25.5,25.4-25.5,25.5,10.7,25.5,25.5-10.8,25.5-25.5,25.5ZM1712.2,314c11.2,0,19.4-8.4,19.4-20s-8.2-20-19.4-20-19.3,8.4-19.3,20,8.2,20,19.3,20ZM1702.9,307v-26.6h11.4c6.1,0,9.7,3.4,9.7,8.1s-2.7,6.4-6,7.1l6.4,11.4h-6.9l-4-8.1c-.8-1.4-1.7-2.1-3.1-2.1h-1.4v10.1h-6.1ZM1713.8,291.8c2.3,0,4-1.2,4-3.2s-1.6-3.1-4-3.1h-4.9v6.4h4.9Z"/>
  <path d="M1599,437.6c-15.7,0-28.9-5.8-39.7-17.5-10.6-11.7-15.9-25.9-15.9-42.5s5.3-30.8,15.9-42.5c10.8-11.7,24-17.5,39.7-17.5s15.1,1.8,21.7,5.3c6.6,3.4,11.7,7.5,15.2,12.5v-15.5h25.4v115.4h-25.4v-15.5c-3.5,4.9-8.6,9.2-15.2,12.7-6.6,3.4-13.8,5.1-21.7,5.1ZM1578.9,403.9c6.5,7.1,14.7,10.6,24.7,10.6s18.2-3.5,24.7-10.6c6.5-7.1,9.7-15.8,9.7-26.3s-3.2-19.2-9.7-26.3c-6.5-7.1-14.7-10.6-24.7-10.6s-18.2,3.5-24.7,10.6c-6.5,7.1-9.7,15.9-9.7,26.3s3.2,19.2,9.7,26.3Z"/>
  <path d="M1513,435.3l-51.2-49.2v49.2h-25.4v-115.4h25.4v49.4l45.4-49.4h30.9l-52.4,56.8,60.7,58.6h-33.5Z"/>
  <path d="M1320.3,435.3h-22.6v-115.4h25.4v76.8l58.8-76.8h22.6v115.4h-25.4v-76.9l-58.8,76.9Z"/>
  <path d="M1217.2,435.3v-92.8h-34.6v-22.6h96.2v22.6h-36.2v92.8h-25.4Z"/>
  <path d="M1158.2,420.3c-11.5,11.5-25.8,17.3-42.9,17.3s-31.5-5.8-43.1-17.3c-11.5-11.7-17.3-25.9-17.3-42.7s5.8-30.9,17.3-42.5c11.7-11.7,26.1-17.5,43.1-17.5s31.4,5.8,42.9,17.5c11.7,11.5,17.5,25.7,17.5,42.5s-5.8,31-17.5,42.7ZM1115.3,414c10,0,18.2-3.5,24.7-10.4,6.6-7.1,9.9-15.8,9.9-26.1s-3.3-18.9-9.9-25.8c-6.5-7.1-14.7-10.6-24.7-10.6s-18.5,3.5-25.1,10.6c-6.5,6.9-9.7,15.5-9.7,25.8s3.2,19,9.7,26.1c6.6,6.9,15,10.4,25.1,10.4Z"/>
  <path d="M947,435.3h-22.6v-115.4h25.4v76.8l58.8-76.8h22.6v115.4h-25.4v-76.9l-58.8,76.9Z"/>
  <path d="M840.4,437.6c-18.8,0-33.4-6.1-44.1-18.5-10.6-12.3-15.9-28.8-15.9-49.4v-9.2c0-28.6,5.4-49.9,16.1-63.9,10.9-14,27.9-23.2,51-27.7l41.7-7.6v24.2l-36.2,6.5c-15.1,2.8-26.2,7.7-33.4,14.8-7.1,7.1-11.5,17.4-13.1,30.9,9.5-11.1,22.2-16.6,38.1-16.6s30.5,5.5,40.8,16.4c10.3,10.8,15.5,24,15.5,39.7s-5.8,31.2-17.5,42.9c-11.5,11.7-25.8,17.5-42.9,17.5ZM815.3,404.1c6.5,6.6,14.8,9.9,24.9,9.9s18.5-3.3,24.9-9.9c6.6-6.8,9.9-15.6,9.9-26.5s-3.3-17.8-9.9-24.2c-6.5-6.5-14.7-9.7-24.7-9.7s-18.5,3.3-24.9,9.9c-6.5,6.6-9.7,14.6-9.7,24s3.2,19.8,9.5,26.5Z"/>
  <path d="M627.2,319.9h22.1l40.4,52.6,40.8-52.6h22.1v115.4h-25.4v-75.5l-37.4,48.5-37.4-48.5v75.5h-25.4v-115.4Z"/>
  <path d="M511.1,435.3h-22.6v-115.4h25.4v76.8l58.8-76.8h22.6v115.4h-25.4v-76.9l-58.8,76.9Z"/>
  <path d="M387.7,438.1c-24.4,0-44.8-8.1-61.1-24.2-16.1-16.3-24.2-36.5-24.2-60.5s8.1-44.1,24.2-60.2c16.3-16.3,36.7-24.5,61.1-24.5s36.3,5.5,50.7,16.6c14.6,10.9,24,24.6,28.1,41.1h-29.1c-3.5-9.4-9.8-17-18.9-22.8-9.1-5.8-19.4-8.8-30.9-8.8-16.9,0-30.8,5.6-41.7,16.8-10.9,11.2-16.4,25.2-16.4,41.8s5.5,30.5,16.4,41.8c10.9,11.2,24.8,16.8,41.7,16.8s21.8-2.9,30.9-8.8c9.1-5.8,15.4-13.5,18.9-22.9h29.1c-4.2,16.5-13.5,30.2-28.1,41.3-14.5,10.9-31.4,16.4-50.7,16.4Z"/>
</svg>