<?xml version="1.0" encoding="UTF-8"?>
<svg id="Layer_1" xmlns="http://www.w3.org/2000/svg" version="1.1" viewBox="0 0 2000 2000">
  <!-- Generator: Adobe Illustrator 29.3.0, SVG Export Plug-In . SVG Version: 2.1.0 Build 146)  -->
  <defs>
    <style>
      .st0 {
        fill: #fff;
      }
    </style>
  </defs>
  <rect class="st0" x="0" y="0" width="2000" height="2000"/>
  <g>
    <path d="M1343.3,1198.9c-2.6,2.6-5.9,3.9-10.1,3.9s-7.5-1.3-10.1-3.9c-2.6-2.6-3.9-6.1-3.9-10.5v-21.6h4.7v21.7c0,3.2.8,5.6,2.5,7.3,1.7,1.7,3.9,2.5,6.8,2.5s5.1-.8,6.8-2.5c1.7-1.7,2.5-4.2,2.5-7.3v-21.7h4.7v21.6c0,4.4-1.3,7.8-3.9,10.5Z"/>
    <path d="M1354.6,1202.2v-24.9h4.3v4.8c.5-1.5,1.4-2.8,2.7-3.7,1.4-.9,2.8-1.4,4.3-1.4s1.4,0,2,.2v4.4c-.6-.3-1.4-.4-2.4-.4-1.7,0-3.3.7-4.6,2.2-1.3,1.5-2,3.6-2,6.3v12.4h-4.3Z"/>
    <path d="M1385.5,1202.7c-1.8,0-3.6-.4-5.2-1.2-1.6-.8-2.8-1.9-3.7-3.1v3.8h-4.3v-37.4h4.3v16.3c.9-1.3,2.1-2.3,3.7-3.1,1.6-.8,3.3-1.2,5.2-1.2,3.5,0,6.4,1.3,8.7,3.8,2.4,2.5,3.6,5.6,3.6,9.2s-1.2,6.6-3.6,9.2c-2.3,2.5-5.2,3.8-8.7,3.8ZM1378.8,1196.2c1.6,1.7,3.6,2.6,6.1,2.6s4.5-.9,6.1-2.6c1.6-1.7,2.4-3.9,2.4-6.4s-.8-4.7-2.4-6.4c-1.6-1.7-3.6-2.6-6.1-2.6s-4.5.9-6.1,2.6c-1.6,1.7-2.4,3.9-2.4,6.4s.8,4.7,2.4,6.4Z"/>
    <path d="M1413.8,1202.7c-3.5,0-6.4-1.3-8.8-3.8-2.3-2.5-3.5-5.6-3.5-9.2s1.2-6.7,3.5-9.2c2.4-2.5,5.3-3.8,8.8-3.8s3.5.4,5.1,1.2c1.6.8,2.8,1.8,3.7,3.1v-3.8h4.3v24.9h-4.3v-3.8c-.9,1.3-2.1,2.3-3.7,3.1-1.6.8-3.3,1.2-5.1,1.2ZM1414.4,1198.8c2.5,0,4.5-.9,6.1-2.6,1.6-1.7,2.4-3.9,2.4-6.4s-.8-4.7-2.4-6.4c-1.6-1.7-3.6-2.6-6.1-2.6s-4.6.9-6.2,2.6c-1.6,1.7-2.4,3.9-2.4,6.4s.8,4.7,2.4,6.4c1.6,1.7,3.7,2.6,6.2,2.6Z"/>
    <path d="M1434.5,1202.2v-24.9h4.3v3.8c1.7-2.9,4.4-4.3,8-4.3s5.1.9,6.9,2.7c1.7,1.8,2.6,4.3,2.6,7.3v15.4h-4.3v-14.7c0-2.1-.5-3.7-1.6-4.9-1.1-1.2-2.5-1.8-4.3-1.8s-3.8.8-5.2,2.4c-1.4,1.6-2.1,3.9-2.1,6.7v12.4h-4.3Z"/>
    <path d="M1319.8,1256.5v-35.4h10.2c5.4,0,10,1.7,13.5,5,3.6,3.4,5.4,7.6,5.4,12.7s-1.8,9.3-5.4,12.7c-3.6,3.4-8.1,5-13.5,5h-10.2ZM1324.5,1252.2h5.6c4.2,0,7.7-1.2,10.3-3.7,2.6-2.5,4-5.7,4-9.6s-1.3-7.1-4-9.6c-2.6-2.5-6-3.8-10.3-3.8h-5.6v26.7Z"/>
    <path d="M1365.4,1257c-3.6,0-6.7-1.2-9.1-3.7-2.4-2.5-3.6-5.6-3.6-9.3s1.2-6.9,3.5-9.3c2.3-2.5,5.4-3.7,9.3-3.7s6.9,1.4,9.1,4.1c2.2,2.7,3.2,6.1,2.9,10h-20.4c0,2.3.9,4.2,2.5,5.7,1.6,1.5,3.5,2.2,5.8,2.2,3.4,0,5.8-1.4,7.3-4.2h4.4c-.6,2.3-2,4.3-4.1,5.8-2.1,1.5-4.6,2.3-7.7,2.3ZM1370.3,1236.7c-1.4-1.2-3-1.8-5-1.8s-3.7.6-5.2,1.7c-1.5,1.2-2.4,2.9-2.8,5.2h15.6c-.4-2.3-1.3-4-2.7-5.1Z"/>
    <path d="M1390.6,1256.5l-11.6-24.9h4.8l8.6,18.9,8.6-18.9h4.8l-11.6,24.9h-3.6Z"/>
    <path d="M1419.8,1257c-3.6,0-6.7-1.2-9.1-3.7-2.4-2.5-3.6-5.6-3.6-9.3s1.2-6.9,3.5-9.3c2.3-2.5,5.4-3.7,9.3-3.7s6.9,1.4,9.1,4.1c2.2,2.7,3.2,6.1,2.9,10h-20.4c0,2.3.9,4.2,2.5,5.7,1.6,1.5,3.5,2.2,5.8,2.2,3.4,0,5.8-1.4,7.3-4.2h4.4c-.6,2.3-2,4.3-4.1,5.8-2.1,1.5-4.6,2.3-7.7,2.3ZM1424.7,1236.7c-1.4-1.2-3-1.8-5-1.8s-3.7.6-5.2,1.7c-1.5,1.2-2.4,2.9-2.8,5.2h15.6c-.4-2.3-1.3-4-2.7-5.1Z"/>
    <path d="M1437.6,1256.5v-37.4h4.3v37.4h-4.3Z"/>
    <path d="M1460.7,1257c-3.8,0-6.9-1.2-9.4-3.7-2.5-2.5-3.7-5.6-3.7-9.2s1.2-6.7,3.7-9.2c2.5-2.5,5.6-3.8,9.4-3.8s6.8,1.3,9.3,3.8c2.5,2.5,3.8,5.6,3.8,9.2s-1.3,6.7-3.8,9.2c-2.5,2.5-5.6,3.7-9.3,3.7ZM1454.4,1250.4c1.6,1.7,3.7,2.6,6.3,2.6s4.7-.9,6.3-2.6c1.6-1.7,2.4-3.9,2.4-6.4s-.8-4.7-2.4-6.4c-1.6-1.7-3.7-2.6-6.3-2.6s-4.7.9-6.3,2.6c-1.6,1.7-2.4,3.9-2.4,6.4s.8,4.7,2.4,6.4Z"/>
    <path d="M1483.8,1266.9h-4.3v-35.4h4.3v3.8c.9-1.3,2.1-2.3,3.7-3.1,1.6-.8,3.3-1.2,5.2-1.2,3.5,0,6.4,1.3,8.7,3.8,2.4,2.5,3.6,5.6,3.6,9.2s-1.2,6.7-3.6,9.2c-2.3,2.5-5.2,3.8-8.7,3.8s-3.6-.4-5.2-1.2c-1.6-.8-2.8-1.9-3.7-3.1v14.3ZM1485.8,1250.5c1.6,1.7,3.6,2.6,6.1,2.6s4.5-.9,6.1-2.6c1.6-1.7,2.4-3.9,2.4-6.4s-.8-4.7-2.4-6.4c-1.6-1.7-3.6-2.6-6.1-2.6s-4.5.9-6.1,2.6c-1.6,1.7-2.4,3.9-2.4,6.4s.8,4.7,2.4,6.4Z"/>
    <path d="M1542.8,1256.5v-14.7c0-2.1-.4-3.7-1.3-4.9-.8-1.3-2.1-1.9-3.7-1.9s-3.6.8-4.9,2.3c-1.2,1.6-1.9,3.7-2,6.4v12.8h-4.3v-14.7c0-2.1-.4-3.8-1.3-5-.8-1.2-2-1.8-3.6-1.8s-3.7.8-5,2.5c-1.3,1.6-1.9,3.8-1.9,6.6v12.4h-4.3v-24.9h4.3v3.8c1.6-2.9,4.1-4.3,7.6-4.3s6.4,1.8,7.7,5.3c.7-1.6,1.7-2.9,3.2-3.9,1.5-1,3.1-1.4,5-1.4,2.7,0,4.8.9,6.4,2.7,1.6,1.8,2.4,4.3,2.4,7.4v15.3h-4.3Z"/>
    <path d="M1565.1,1257c-3.6,0-6.7-1.2-9.1-3.7-2.4-2.5-3.6-5.6-3.6-9.3s1.2-6.9,3.5-9.3c2.3-2.5,5.4-3.7,9.3-3.7s6.9,1.4,9.1,4.1c2.2,2.7,3.2,6.1,2.9,10h-20.4c0,2.3.9,4.2,2.5,5.7,1.6,1.5,3.5,2.2,5.8,2.2,3.4,0,5.8-1.4,7.3-4.2h4.4c-.6,2.3-2,4.3-4.1,5.8-2.1,1.5-4.6,2.3-7.7,2.3ZM1570,1236.7c-1.4-1.2-3-1.8-5-1.8s-3.7.6-5.2,1.7c-1.5,1.2-2.4,2.9-2.8,5.2h15.6c-.4-2.3-1.3-4-2.7-5.1Z"/>
    <path d="M1582.9,1256.5v-24.9h4.3v3.8c1.7-2.9,4.4-4.3,8-4.3s5.1.9,6.9,2.7c1.7,1.8,2.6,4.3,2.6,7.3v15.4h-4.3v-14.7c0-2.1-.5-3.7-1.6-4.9-1.1-1.2-2.5-1.8-4.3-1.8s-3.8.8-5.2,2.4c-1.4,1.6-2.1,3.9-2.1,6.7v12.4h-4.3Z"/>
    <path d="M1621.3,1256.8c-2.3,0-4.2-.6-5.6-1.9-1.4-1.3-2.1-3.2-2.1-5.7v-13.6h-5.3v-3.9h5.3v-6.9h4.3v6.9h7.2v3.9h-7.2v13.1c0,1.6.3,2.7,1,3.3.7.6,1.7.9,3.2.9s2.3-.2,3.1-.5v3.8c-1.2.4-2.5.6-3.9.6Z"/>
    <path d="M1056.9,731.1h-525v262.5c0,145,117.5,262.5,262.5,262.5s259.2-118.4,261.6-261.3h.9v261.3c145,0,262.5-117.5,262.5-262.5s-117.5-262.5-262.5-262.5Z"/>
  </g>
</svg>