<?xml version="1.0" encoding="UTF-8"?>
<svg id="Layer_1" xmlns="http://www.w3.org/2000/svg" version="1.1" viewBox="0 0 2000 2000">
  <!-- Generator: Adobe Illustrator 29.3.0, SVG Export Plug-In . SVG Version: 2.1.0 Build 146)  -->
  <defs>
    <style>
      .st0 {
        fill: #fff;
      }
    </style>
  </defs>
  <rect class="st0" x="0" y="0" width="2000" height="2000"/>
  <g>
    <path d="M844.5,1168.9v-203.9c0-1,1.5-1.2,1.7-.2,29.6,117.2,136.5,204.1,263.9,204.1h272v-539.2h-272c-127.4,0-234.3,86.8-263.9,204.1-.3,1-1.7.8-1.7-.2v-203.9c-150.2,0-272,120.7-272,269.6,0,148.9,121.8,269.6,272,269.6Z"/>
    <path d="M1412.3,1299.8c-8.7,0-15.2-6.4-15.2-15.1s6.4-15.1,15.2-15.1,15.2,6.3,15.2,15.1-6.4,15.1-15.2,15.1ZM1412.3,1296.5c6.6,0,11.5-5,11.5-11.9s-4.9-11.9-11.5-11.9-11.5,5-11.5,11.9,4.9,11.9,11.5,11.9ZM1406.8,1292.4v-15.8h6.8c3.6,0,5.8,2,5.8,4.8s-1.6,3.8-3.6,4.3l3.8,6.8h-4.1l-2.4-4.8c-.5-.8-1-1.2-1.9-1.2h-.8v6h-3.6ZM1413.3,1283.3c1.4,0,2.4-.7,2.4-1.9s-.9-1.9-2.4-1.9h-2.9v3.8h2.9Z"/>
    <path d="M1344.9,1370c-9.3,0-17.2-3.5-23.6-10.4-6.3-7-9.5-15.4-9.5-25.3s3.2-18.3,9.5-25.3c6.4-7,14.3-10.4,23.6-10.4s9,1.1,12.9,3.2c3.9,2,7,4.5,9.1,7.4v-9.2h15.1v68.6h-15.1v-9.2c-2.1,2.9-5.1,5.4-9.1,7.5-3.9,2-8.2,3-12.9,3ZM1332.9,1350c3.8,4.2,8.7,6.3,14.7,6.3s10.9-2.1,14.7-6.3c3.8-4.2,5.8-9.4,5.8-15.6s-1.9-11.4-5.8-15.6c-3.8-4.2-8.7-6.3-14.7-6.3s-10.9,2.1-14.7,6.3c-3.8,4.2-5.8,9.4-5.8,15.6s1.9,11.4,5.8,15.6Z"/>
    <path d="M1293.7,1368.7l-30.5-29.2v29.2h-15.1v-68.6h15.1v29.4l27.1-29.4h18.4l-31.2,33.8,36.1,34.9h-19.9Z"/>
    <path d="M1178.9,1368.7h-13.5v-68.6h15.1v45.7l35-45.7h13.5v68.6h-15.1v-45.7l-35,45.7Z"/>
    <path d="M1117.5,1368.7v-55.2h-20.6v-13.5h57.3v13.5h-21.6v55.2h-15.1Z"/>
    <path d="M1082.3,1359.7c-6.9,6.9-15.4,10.3-25.6,10.3s-18.7-3.4-25.7-10.3c-6.9-7-10.3-15.4-10.3-25.4s3.4-18.4,10.3-25.3c7-7,15.5-10.4,25.7-10.4s18.7,3.5,25.6,10.4c7,6.9,10.4,15.3,10.4,25.3s-3.5,18.4-10.4,25.4ZM1056.7,1356c6,0,10.9-2.1,14.7-6.2,3.9-4.2,5.9-9.4,5.9-15.5s-2-11.3-5.9-15.4c-3.8-4.2-8.7-6.3-14.7-6.3s-11,2.1-15,6.3c-3.8,4.1-5.8,9.2-5.8,15.4s1.9,11.3,5.8,15.5c3.9,4.1,8.9,6.2,15,6.2Z"/>
    <path d="M956.5,1368.7h-13.5v-68.6h15.1v45.7l35-45.7h13.5v68.6h-15.1v-45.7l-35,45.7Z"/>
    <path d="M893,1370c-11.2,0-19.9-3.7-26.2-11-6.3-7.3-9.5-17.1-9.5-29.4v-5.5c0-17,3.2-29.7,9.6-38,6.5-8.3,16.6-13.8,30.4-16.5l24.9-4.5v14.4l-21.6,3.8c-9,1.6-15.6,4.6-19.9,8.8-4.2,4.2-6.8,10.3-7.8,18.4,5.7-6.6,13.2-9.9,22.7-9.9s18.2,3.2,24.3,9.7c6.1,6.4,9.2,14.3,9.2,23.6s-3.5,18.6-10.4,25.5c-6.9,7-15.4,10.4-25.6,10.4ZM878.1,1350.1c3.8,3.9,8.8,5.9,14.8,5.9s11-2,14.8-5.9c3.9-4,5.9-9.3,5.9-15.8s-2-10.6-5.9-14.4c-3.8-3.8-8.7-5.8-14.7-5.8s-11,2-14.8,5.9c-3.8,3.9-5.8,8.7-5.8,14.3s1.9,11.8,5.6,15.8Z"/>
    <path d="M766,1300h13.2l24,31.3,24.3-31.3h13.2v68.6h-15.1v-44.9l-22.3,28.8-22.3-28.8v44.9h-15.1v-68.6Z"/>
    <path d="M696.9,1368.7h-13.5v-68.6h15.1v45.7l35-45.7h13.5v68.6h-15.1v-45.7l-35,45.7Z"/>
    <path d="M623.3,1370.3c-14.6,0-26.7-4.8-36.4-14.4-9.6-9.7-14.4-21.7-14.4-36s4.8-26.2,14.4-35.8c9.7-9.7,21.8-14.6,36.4-14.6s21.6,3.3,30.2,9.9c8.7,6.5,14.3,14.6,16.8,24.4h-17.3c-2.1-5.6-5.9-10.1-11.3-13.6-5.4-3.5-11.5-5.2-18.4-5.2-10.1,0-18.4,3.3-24.9,10-6.5,6.7-9.8,15-9.8,24.8s3.3,18.2,9.8,24.8c6.5,6.7,14.8,10,24.9,10s13-1.7,18.4-5.2c5.4-3.5,9.2-8,11.3-13.6h17.3c-2.5,9.8-8.1,18-16.8,24.6-8.6,6.5-18.7,9.7-30.2,9.7Z"/>
  </g>
</svg>