<?xml version="1.0" encoding="UTF-8"?>
<svg id="Layer_1" xmlns="http://www.w3.org/2000/svg" version="1.1" viewBox="0 0 2000 2000">
  <!-- Generator: Adobe Illustrator 29.3.0, SVG Export Plug-In . SVG Version: 2.1.0 Build 146)  -->
  <defs>
    <style>
      .st0 {
        fill: #fff;
      }
    </style>
  </defs>
  <rect class="st0" x="0" y="0" width="2000" height="2000"/>
  <g>
    <path d="M1056.3,1256.9v-197.9c0-1-1.4-1.2-1.6-.2-28.7,113.8-132.4,198.1-256,198.1h-263.8v-523.5s263.8,0,263.8,0c123.6,0,227.3,84.3,255.9,198.1.3,1,1.6.8,1.6-.2v-197.9c145.7,0,263.8,117.2,263.8,261.7s-118.1,261.7-263.8,261.7Z"/>
    <path d="M1320.1,1202.2v-35.5h10.2c5.4,0,9.9,1.7,13.5,5.1,3.6,3.4,5.4,7.6,5.4,12.7s-1.8,9.3-5.4,12.7c-3.6,3.4-8.1,5.1-13.5,5.1h-10.2ZM1324.8,1197.8h5.6c4.2,0,7.7-1.3,10.3-3.8,2.6-2.5,4-5.8,4-9.7s-1.3-7.1-4-9.6c-2.6-2.5-6-3.8-10.3-3.8h-5.6v26.8Z"/>
    <path d="M1365.7,1202.7c-3.6,0-6.7-1.2-9.1-3.7-2.4-2.5-3.6-5.6-3.6-9.3s1.2-6.9,3.5-9.3c2.3-2.5,5.4-3.7,9.3-3.7s6.9,1.4,9.1,4.1c2.2,2.7,3.2,6.1,2.9,10.1h-20.4c0,2.3.9,4.2,2.5,5.7,1.6,1.5,3.5,2.3,5.8,2.3,3.4,0,5.8-1.4,7.3-4.2h4.4c-.6,2.3-2,4.3-4.1,5.8-2.1,1.5-4.6,2.3-7.7,2.3ZM1370.6,1182.2c-1.4-1.2-3-1.8-5-1.8s-3.7.6-5.2,1.8c-1.5,1.2-2.4,2.9-2.8,5.2h15.6c-.4-2.3-1.3-4-2.7-5.2Z"/>
    <path d="M1391.5,1202.7c-2.8,0-5.2-.7-7.1-2.1-1.9-1.4-2.9-3.3-3.1-5.7h4.4c.3,1.4.9,2.4,2,3.1,1.1.7,2.4,1,3.8,1s2.6-.3,3.5-.8c.9-.6,1.4-1.4,1.4-2.5s-.3-1.8-1-2.5c-.6-.6-1.7-1.2-3.2-1.5l-3.6-1c-4.3-1.1-6.5-3.6-6.5-7.4s.8-3.7,2.4-4.9c1.6-1.2,3.7-1.9,6.3-1.9s4.7.7,6.3,2.1c1.7,1.3,2.6,3,2.8,5.1h-4.3c-.3-1.1-.9-2-1.8-2.6-.8-.6-1.8-1-3-1s-2.3.3-3.1.9c-.8.6-1.2,1.3-1.2,2.3s.3,1.6.9,2.2c.6.6,1.6,1,2.9,1.4l4,1c4.3,1.1,6.4,3.5,6.4,7.4s-.9,4.2-2.6,5.5c-1.7,1.2-3.9,1.8-6.7,1.8Z"/>
    <path d="M1410.7,1169.6c-.6.6-1.3.9-2.1.9s-1.6-.3-2.2-.9c-.6-.6-.9-1.3-.9-2.2s.3-1.5.9-2.1c.6-.6,1.3-.9,2.2-.9s1.6.3,2.1.9c.6.6.9,1.3.9,2.1s-.3,1.6-.9,2.2ZM1406.3,1202.2v-25h4.3v25h-4.3Z"/>
    <path d="M1429.3,1213.1c-3.3,0-6.1-.8-8.3-2.5-2.2-1.6-3.5-3.7-3.9-6.2h4.2c1.1,3.2,3.8,4.9,8,4.9s4.3-.8,5.7-2.3c1.5-1.5,2.2-3.6,2.2-6.4v-3c-.9,1.3-2.1,2.4-3.7,3.2-1.5.8-3.2,1.2-5.1,1.2-3.5,0-6.4-1.2-8.8-3.7-2.3-2.5-3.5-5.5-3.5-9.1s1.2-6.6,3.5-9c2.4-2.5,5.3-3.7,8.8-3.7s3.5.4,5.1,1.2c1.5.8,2.8,1.9,3.7,3.2v-3.9h4.3v23.5c0,4-1.2,7.1-3.5,9.3-2.3,2.2-5.2,3.3-8.8,3.3ZM1423.1,1195.7c1.6,1.6,3.6,2.5,6.1,2.5s4.5-.8,6.1-2.5c1.6-1.7,2.4-3.8,2.4-6.3s-.8-4.6-2.4-6.3c-1.6-1.7-3.6-2.5-6.1-2.5s-4.5.8-6.1,2.5c-1.6,1.6-2.4,3.7-2.4,6.3s.8,4.6,2.4,6.3Z"/>
    <path d="M1449.2,1202.2v-25h4.3v3.9c1.7-2.9,4.4-4.4,8-4.4s5.1.9,6.9,2.8c1.7,1.8,2.6,4.3,2.6,7.4v15.4h-4.3v-14.8c0-2.1-.5-3.8-1.6-5-1.1-1.2-2.5-1.9-4.3-1.9s-3.8.8-5.2,2.5c-1.4,1.6-2.1,3.9-2.1,6.7v12.4h-4.3Z"/>
    <path d="M1320.1,1256.1v-35.5h10.2c5.4,0,9.9,1.7,13.5,5.1,3.6,3.4,5.4,7.6,5.4,12.7s-1.8,9.3-5.4,12.7c-3.6,3.4-8.1,5.1-13.5,5.1h-10.2ZM1324.8,1251.8h5.6c4.2,0,7.7-1.3,10.3-3.8,2.6-2.5,4-5.8,4-9.7s-1.3-7.1-4-9.6c-2.6-2.5-6-3.8-10.3-3.8h-5.6v26.8Z"/>
    <path d="M1365.7,1256.6c-3.6,0-6.7-1.2-9.1-3.7-2.4-2.5-3.6-5.6-3.6-9.3s1.2-6.9,3.5-9.3c2.3-2.5,5.4-3.7,9.3-3.7s6.9,1.4,9.1,4.1c2.2,2.7,3.2,6.1,2.9,10.1h-20.4c0,2.3.9,4.2,2.5,5.7,1.6,1.5,3.5,2.3,5.8,2.3,3.4,0,5.8-1.4,7.3-4.2h4.4c-.6,2.3-2,4.3-4.1,5.8-2.1,1.5-4.6,2.3-7.7,2.3ZM1370.6,1236.2c-1.4-1.2-3-1.8-5-1.8s-3.7.6-5.2,1.8c-1.5,1.2-2.4,2.9-2.8,5.2h15.6c-.4-2.3-1.3-4-2.7-5.2Z"/>
    <path d="M1390.8,1256.1l-11.6-25h4.8l8.6,19,8.6-19h4.8l-11.6,25h-3.6Z"/>
    <path d="M1420,1256.6c-3.6,0-6.7-1.2-9.1-3.7-2.4-2.5-3.6-5.6-3.6-9.3s1.2-6.9,3.5-9.3c2.3-2.5,5.4-3.7,9.3-3.7s6.9,1.4,9.1,4.1c2.2,2.7,3.2,6.1,2.9,10.1h-20.4c0,2.3.9,4.2,2.5,5.7,1.6,1.5,3.5,2.3,5.8,2.3,3.4,0,5.8-1.4,7.3-4.2h4.4c-.6,2.3-2,4.3-4.1,5.8-2.1,1.5-4.6,2.3-7.7,2.3ZM1424.9,1236.2c-1.4-1.2-3-1.8-5-1.8s-3.7.6-5.2,1.8c-1.5,1.2-2.4,2.9-2.8,5.2h15.6c-.4-2.3-1.3-4-2.7-5.2Z"/>
    <path d="M1437.8,1256.1v-37.5h4.3v37.5h-4.3Z"/>
    <path d="M1460.8,1256.6c-3.8,0-6.9-1.3-9.4-3.8-2.5-2.5-3.7-5.6-3.7-9.3s1.2-6.7,3.7-9.2c2.5-2.5,5.6-3.8,9.4-3.8s6.8,1.3,9.3,3.8c2.5,2.5,3.8,5.6,3.8,9.2s-1.3,6.7-3.8,9.3c-2.5,2.5-5.6,3.8-9.3,3.8ZM1454.5,1250c1.6,1.7,3.7,2.6,6.3,2.6s4.7-.9,6.3-2.6c1.6-1.7,2.4-3.9,2.4-6.4s-.8-4.7-2.4-6.4c-1.6-1.7-3.7-2.6-6.3-2.6s-4.7.9-6.3,2.6c-1.6,1.7-2.4,3.9-2.4,6.4s.8,4.7,2.4,6.4Z"/>
    <path d="M1483.9,1266.6h-4.3v-35.5h4.3v3.9c.9-1.3,2.1-2.3,3.7-3.1,1.6-.8,3.3-1.3,5.2-1.3,3.5,0,6.4,1.3,8.7,3.8,2.4,2.5,3.6,5.6,3.6,9.2s-1.2,6.7-3.6,9.2c-2.3,2.5-5.2,3.8-8.7,3.8s-3.6-.4-5.2-1.2c-1.6-.8-2.8-1.9-3.7-3.2v14.3ZM1485.9,1250.1c1.6,1.7,3.6,2.6,6.1,2.6s4.5-.9,6.1-2.6c1.6-1.7,2.4-3.9,2.4-6.5s-.8-4.7-2.4-6.5c-1.6-1.7-3.6-2.6-6.1-2.6s-4.5.9-6.1,2.6c-1.6,1.7-2.4,3.9-2.4,6.5s.8,4.7,2.4,6.5Z"/>
    <path d="M1542.9,1256.1v-14.7c0-2.1-.4-3.7-1.3-5-.8-1.3-2.1-1.9-3.7-1.9s-3.6.8-4.9,2.4c-1.2,1.6-1.9,3.7-2,6.4v12.8h-4.3v-14.7c0-2.1-.4-3.8-1.3-5-.8-1.2-2-1.9-3.6-1.9s-3.7.8-5,2.5c-1.3,1.6-1.9,3.9-1.9,6.7v12.4h-4.3v-25h4.3v3.9c1.6-2.9,4.1-4.4,7.6-4.4s6.4,1.8,7.7,5.4c.7-1.6,1.7-2.9,3.2-3.9,1.5-1,3.1-1.4,5-1.4,2.7,0,4.8.9,6.4,2.7,1.6,1.8,2.4,4.3,2.4,7.4v15.4h-4.3Z"/>
    <path d="M1565.1,1256.6c-3.6,0-6.7-1.2-9.1-3.7-2.4-2.5-3.6-5.6-3.6-9.3s1.2-6.9,3.5-9.3c2.3-2.5,5.4-3.7,9.3-3.7s6.9,1.4,9.1,4.1c2.2,2.7,3.2,6.1,2.9,10.1h-20.4c0,2.3.9,4.2,2.5,5.7,1.6,1.5,3.5,2.3,5.8,2.3,3.4,0,5.8-1.4,7.3-4.2h4.4c-.6,2.3-2,4.3-4.1,5.8-2.1,1.5-4.6,2.3-7.7,2.3ZM1570,1236.2c-1.4-1.2-3-1.8-5-1.8s-3.7.6-5.2,1.8c-1.5,1.2-2.4,2.9-2.8,5.2h15.6c-.4-2.3-1.3-4-2.7-5.2Z"/>
    <path d="M1582.9,1256.1v-25h4.3v3.9c1.7-2.9,4.4-4.4,8-4.4s5.1.9,6.9,2.7c1.7,1.8,2.6,4.3,2.6,7.4v15.4h-4.3v-14.8c0-2.1-.5-3.8-1.6-5-1.1-1.2-2.5-1.9-4.3-1.9s-3.8.8-5.2,2.5c-1.4,1.6-2.1,3.9-2.1,6.7v12.4h-4.3Z"/>
    <path d="M1621.2,1256.4c-2.3,0-4.2-.7-5.6-2-1.4-1.3-2.1-3.2-2.1-5.7v-13.7h-5.3v-4h5.3v-7h4.3v7h7.2v4h-7.2v13.1c0,1.6.3,2.7,1,3.3.7.6,1.7,1,3.2,1s2.3-.2,3.1-.5v3.9c-1.2.4-2.5.6-3.9.6Z"/>
  </g>
</svg>